<svg xmlns="http://www.w3.org/2000/svg" width="1051" height="131" viewBox="0 0 1051 131" fill="none"><path d="M-936.18 106.68H-983.34L-990.9 129H-1023.12L-977.4 2.64H-941.76L-896.04 129H-928.62L-936.18 106.68ZM-944.1 82.92L-959.76 36.66L-975.24 82.92H-944.1ZM-813.201 105.24H-772.881V129H-843.981V2.64H-813.201V105.24ZM-727.419 27.3V52.86H-686.199V76.62H-727.419V104.34H-680.799V129H-758.199V2.64H-680.799V27.3H-727.419ZM-542.197 2.64L-587.017 129H-625.537L-670.357 2.64H-637.597L-606.277 98.04L-574.777 2.64H-542.197ZM-498.552 27.3V52.86H-457.332V76.62H-498.552V104.34H-451.932V129H-529.332V2.64H-451.932V27.3H-498.552ZM-367.509 129L-393.789 81.3H-401.169V129H-431.949V2.64H-380.289C-370.329 2.64 -361.869 4.38 -354.909 7.85999C-347.829 11.34 -342.549 16.14 -339.069 22.26C-335.589 28.26 -333.849 34.98 -333.849 42.42C-333.849 50.82 -336.249 58.32 -341.049 64.92C-345.729 71.52 -352.689 76.2 -361.929 78.96L-332.769 129H-367.509ZM-401.169 59.52H-382.089C-376.449 59.52 -372.249 58.14 -369.489 55.38C-366.609 52.62 -365.169 48.72 -365.169 43.68C-365.169 38.88 -366.609 35.1 -369.489 32.34C-372.249 29.58 -376.449 28.2 -382.089 28.2H-401.169V59.52ZM-235.867 106.68H-283.027L-290.587 129H-322.807L-277.087 2.64H-241.447L-195.727 129H-228.307L-235.867 106.68ZM-243.787 82.92L-259.447 36.66L-274.927 82.92H-243.787ZM-97.9327 42.6C-100.213 38.4 -103.513 35.22 -107.833 33.06C-112.033 30.78 -117.013 29.64 -122.773 29.64C-132.733 29.64 -140.713 32.94 -146.713 39.54C-152.713 46.02 -155.713 54.72 -155.713 65.64C-155.713 77.28 -152.593 86.4 -146.353 93C-139.993 99.48 -131.293 102.72 -120.253 102.72C-112.693 102.72 -106.333 100.8 -101.173 96.96C-95.8927 93.12 -92.0527 87.6 -89.6527 80.4H-128.713V57.72H-61.7527V86.34C-64.0326 94.02 -67.9326 101.16 -73.4527 107.76C-78.8527 114.36 -85.7527 119.7 -94.1527 123.78C-102.553 127.86 -112.033 129.9 -122.593 129.9C-135.073 129.9 -146.233 127.2 -156.073 121.8C-165.793 116.28 -173.413 108.66 -178.933 98.94C-184.333 89.22 -187.033 78.12 -187.033 65.64C-187.033 53.16 -184.333 42.06 -178.933 32.34C-173.413 22.5 -165.793 14.88 -156.073 9.47999C-146.353 3.95999 -135.253 1.19999 -122.773 1.19999C-107.653 1.19999 -94.9326 4.85999 -84.6126 12.18C-74.1727 19.5 -67.2727 29.64 -63.9127 42.6H-97.9327ZM-13.9233 27.3V52.86H27.2967V76.62H-13.9233V104.34H32.6967V129H-44.7033V2.64H32.6967V27.3H-13.9233ZM83.4595 2.64V129H52.6795V2.64H83.4595ZM196.665 2.64V27.3H163.185V129H132.405V27.3H98.9255V2.64H196.665ZM346.558 43.32C346.558 50.64 344.878 57.36 341.518 63.48C338.158 69.48 332.998 74.34 326.038 78.06C319.078 81.78 310.438 83.64 300.118 83.64H281.038V129H250.258V2.64H300.118C310.198 2.64 318.718 4.38 325.678 7.85999C332.638 11.34 337.858 16.14 341.338 22.26C344.818 28.38 346.558 35.4 346.558 43.32ZM297.778 59.16C303.658 59.16 308.038 57.78 310.918 55.02C313.798 52.26 315.238 48.36 315.238 43.32C315.238 38.28 313.798 34.38 310.918 31.62C308.038 28.86 303.658 27.48 297.778 27.48H281.038V59.16H297.778ZM427.022 129L400.742 81.3H393.362V129H362.582V2.64H414.242C424.202 2.64 432.662 4.38 439.622 7.85999C446.702 11.34 451.982 16.14 455.462 22.26C458.942 28.26 460.682 34.98 460.682 42.42C460.682 50.82 458.282 58.32 453.482 64.92C448.802 71.52 441.842 76.2 432.602 78.96L461.762 129H427.022ZM393.362 59.52H412.442C418.082 59.52 422.282 58.14 425.042 55.38C427.922 52.62 429.362 48.72 429.362 43.68C429.362 38.88 427.922 35.1 425.042 32.34C422.282 29.58 418.082 28.2 412.442 28.2H393.362V59.52ZM539.764 130.26C527.884 130.26 516.964 127.5 507.004 121.98C497.164 116.46 489.304 108.78 483.424 98.94C477.664 88.98 474.784 77.82 474.784 65.46C474.784 53.1 477.664 42 483.424 32.16C489.304 22.32 497.164 14.64 507.004 9.12C516.964 3.6 527.884 0.839998 539.764 0.839998C551.644 0.839998 562.504 3.6 572.344 9.12C582.304 14.64 590.104 22.32 595.744 32.16C601.504 42 604.384 53.1 604.384 65.46C604.384 77.82 601.504 88.98 595.744 98.94C589.984 108.78 582.184 116.46 572.344 121.98C562.504 127.5 551.644 130.26 539.764 130.26ZM539.764 102.18C549.844 102.18 557.884 98.82 563.884 92.1C570.004 85.38 573.064 76.5 573.064 65.46C573.064 54.3 570.004 45.42 563.884 38.82C557.884 32.1 549.844 28.74 539.764 28.74C529.564 28.74 521.404 32.04 515.284 38.64C509.284 45.24 506.284 54.18 506.284 65.46C506.284 76.62 509.284 85.56 515.284 92.28C521.404 98.88 529.564 102.18 539.764 102.18ZM700.708 2.64V88.68C700.708 102 696.928 112.26 689.368 119.46C681.928 126.66 671.848 130.26 659.128 130.26C645.808 130.26 635.128 126.48 627.088 118.92C619.048 111.36 615.028 100.62 615.028 86.7H645.628C645.628 91.98 646.708 96 648.868 98.76C651.028 101.4 654.148 102.72 658.228 102.72C661.948 102.72 664.828 101.52 666.868 99.12C668.908 96.72 669.928 93.24 669.928 88.68V2.64H700.708ZM756.35 27.3V52.86H797.57V76.62H756.35V104.34H802.97V129H725.57V2.64H802.97V27.3H756.35ZM817.733 65.64C817.733 53.16 820.433 42.06 825.833 32.34C831.233 22.5 838.733 14.88 848.333 9.47999C858.053 3.95999 869.033 1.19999 881.273 1.19999C896.273 1.19999 909.113 5.15999 919.793 13.08C930.473 21 937.613 31.8 941.213 45.48H907.373C904.853 40.2 901.253 36.18 896.573 33.42C892.013 30.66 886.793 29.28 880.913 29.28C871.433 29.28 863.753 32.58 857.873 39.18C851.993 45.78 849.053 54.6 849.053 65.64C849.053 76.68 851.993 85.5 857.873 92.1C863.753 98.7 871.433 102 880.913 102C886.793 102 892.013 100.62 896.573 97.86C901.253 95.1 904.853 91.08 907.373 85.8H941.213C937.613 99.48 930.473 110.28 919.793 118.2C909.113 126 896.273 129.9 881.273 129.9C869.033 129.9 858.053 127.2 848.333 121.8C838.733 116.28 831.233 108.66 825.833 98.94C820.433 89.22 817.733 78.12 817.733 65.64ZM1050.96 2.64V27.3H1017.48V129H986.702V27.3H953.222V2.64H1050.96Z" fill="#1B1B1B"></path></svg>