<svg xmlns="http://www.w3.org/2000/svg" width="880" height="130" viewBox="0 0 880 130" fill="none"><path d="M85.46 104.06H35.42L27.14 128H0.68L45.86 2.17999H75.2L120.38 128H93.74L85.46 104.06ZM78.62 83.9L60.44 31.34L42.26 83.9H78.62ZM208.548 63.56C215.628 64.88 221.448 68.42 226.008 74.18C230.568 79.94 232.848 86.54 232.848 93.98C232.848 100.7 231.168 106.64 227.808 111.8C224.568 116.84 219.828 120.8 213.588 123.68C207.348 126.56 199.968 128 191.448 128H137.268V2.36H189.108C197.628 2.36 204.948 3.74 211.068 6.5C217.308 9.26 221.988 13.1 225.108 18.02C228.348 22.94 229.968 28.52 229.968 34.76C229.968 42.08 227.988 48.2 224.028 53.12C220.188 58.04 215.028 61.52 208.548 63.56ZM162.468 54.2H185.508C191.508 54.2 196.128 52.88 199.368 50.24C202.608 47.48 204.228 43.58 204.228 38.54C204.228 33.5 202.608 29.6 199.368 26.84C196.128 24.08 191.508 22.7 185.508 22.7H162.468V54.2ZM187.848 107.48C193.968 107.48 198.708 106.04 202.068 103.16C205.548 100.28 207.288 96.2 207.288 90.92C207.288 85.52 205.488 81.32 201.888 78.32C198.288 75.2 193.428 73.64 187.308 73.64H162.468V107.48H187.848ZM311.252 129.26C299.492 129.26 288.692 126.5 278.852 120.98C269.012 115.46 261.212 107.84 255.452 98.12C249.692 88.28 246.812 77.18 246.812 64.82C246.812 52.58 249.692 41.6 255.452 31.88C261.212 22.04 269.012 14.36 278.852 8.83999C288.692 3.32 299.492 0.559999 311.252 0.559999C323.132 0.559999 333.932 3.32 343.652 8.83999C353.492 14.36 361.232 22.04 366.872 31.88C372.632 41.6 375.512 52.58 375.512 64.82C375.512 77.18 372.632 88.28 366.872 98.12C361.232 107.84 353.492 115.46 343.652 120.98C333.812 126.5 323.012 129.26 311.252 129.26ZM311.252 106.76C318.812 106.76 325.472 105.08 331.232 101.72C336.992 98.24 341.492 93.32 344.732 86.96C347.972 80.6 349.592 73.22 349.592 64.82C349.592 56.42 347.972 49.1 344.732 42.86C341.492 36.5 336.992 31.64 331.232 28.28C325.472 24.92 318.812 23.24 311.252 23.24C303.692 23.24 296.972 24.92 291.092 28.28C285.332 31.64 280.832 36.5 277.592 42.86C274.352 49.1 272.732 56.42 272.732 64.82C272.732 73.22 274.352 80.6 277.592 86.96C280.832 93.32 285.332 98.24 291.092 101.72C296.972 105.08 303.692 106.76 311.252 106.76ZM419.1 2.36V80.12C419.1 88.64 421.32 95.18 425.76 99.74C430.2 104.18 436.44 106.4 444.48 106.4C452.64 106.4 458.94 104.18 463.38 99.74C467.82 95.18 470.04 88.64 470.04 80.12V2.36H495.42V79.94C495.42 90.62 493.08 99.68 488.4 107.12C483.84 114.44 477.66 119.96 469.86 123.68C462.18 127.4 453.6 129.26 444.12 129.26C434.76 129.26 426.24 127.4 418.56 123.68C411 119.96 405 114.44 400.56 107.12C396.12 99.68 393.9 90.62 393.9 79.94V2.36H419.1ZM605.268 2.36V22.7H571.788V128H546.588V22.7H513.108V2.36H605.268ZM691.385 2.36V80.12C691.385 88.64 693.605 95.18 698.045 99.74C702.485 104.18 708.725 106.4 716.765 106.4C724.925 106.4 731.225 104.18 735.665 99.74C740.105 95.18 742.325 88.64 742.325 80.12V2.36H767.705V79.94C767.705 90.62 765.365 99.68 760.685 107.12C756.125 114.44 749.945 119.96 742.145 123.68C734.465 127.4 725.885 129.26 716.405 129.26C707.045 129.26 698.525 127.4 690.845 123.68C683.285 119.96 677.285 114.44 672.845 107.12C668.405 99.68 666.185 90.62 666.185 79.94V2.36H691.385ZM835.433 129.26C826.673 129.26 818.753 127.76 811.673 124.76C804.713 121.76 799.193 117.44 795.113 111.8C791.033 106.16 788.933 99.5 788.813 91.82H815.813C816.173 96.98 817.973 101.06 821.213 104.06C824.573 107.06 829.133 108.56 834.893 108.56C840.773 108.56 845.393 107.18 848.753 104.42C852.113 101.54 853.793 97.82 853.793 93.26C853.793 89.54 852.653 86.48 850.373 84.08C848.093 81.68 845.213 79.82 841.733 78.5C838.373 77.06 833.693 75.5 827.693 73.82C819.533 71.42 812.873 69.08 807.713 66.8C802.673 64.4 798.293 60.86 794.573 56.18C790.973 51.38 789.173 45.02 789.173 37.1C789.173 29.66 791.033 23.18 794.753 17.66C798.473 12.14 803.693 7.93999 810.413 5.05999C817.133 2.06 824.813 0.559999 833.453 0.559999C846.413 0.559999 856.913 3.74 864.953 10.1C873.113 16.34 877.613 25.1 878.453 36.38H850.733C850.493 32.06 848.633 28.52 845.153 25.76C841.793 22.88 837.293 21.44 831.653 21.44C826.733 21.44 822.773 22.7 819.773 25.22C816.893 27.74 815.453 31.4 815.453 36.2C815.453 39.56 816.533 42.38 818.693 44.66C820.973 46.82 823.733 48.62 826.973 50.06C830.333 51.38 835.013 52.94 841.013 54.74C849.173 57.14 855.833 59.54 860.993 61.94C866.153 64.34 870.593 67.94 874.313 72.74C878.033 77.54 879.893 83.84 879.893 91.64C879.893 98.36 878.153 104.6 874.673 110.36C871.193 116.12 866.093 120.74 859.373 124.22C852.653 127.58 844.673 129.26 835.433 129.26Z" fill="#1B1B1B"></path></svg>