<svg xmlns="http://www.w3.org/2000/svg" width="974" height="1025" viewBox="0 0 974 1025" fill="none"><g opacity="0.15"><g filter="url(#filter0_f_112_25)"><path d="M304.511 578.454C333.293 464.214 367.275 374.287 481.515 403.069C595.755 431.85 665.033 547.792 636.252 662.032C607.471 776.273 509.183 754.536 388.104 773.838C273.864 745.057 193.454 722.723 304.511 578.454Z" fill="#FACD2F"></path></g><g filter="url(#filter1_f_112_25)"><path d="M443.604 400.809C467.31 306.717 495.299 232.65 589.391 256.355C683.483 280.061 740.543 375.555 716.838 469.647C693.132 563.739 612.179 545.836 512.454 561.734C418.362 538.029 352.134 519.634 443.604 400.809Z" fill="#00E794"></path></g></g><defs><filter id="filter0_f_112_25" x="0.433594" y="146.654" width="893.333" height="878.184" filterUnits="userSpaceOnUse" color-interpolation-filters="sRGB"><feGaussianBlur stdDeviation="125.5"></feGaussianBlur></filter><filter id="filter1_f_112_25" x="148.888" y="0.89502" width="824.315" height="811.839" filterUnits="userSpaceOnUse" color-interpolation-filters="sRGB"><feGaussianBlur stdDeviation="125.5"></feGaussianBlur></filter></defs></svg>