<svg width="25" height="22" viewBox="0 0 25 22" fill="none" xmlns="http://www.w3.org/2000/svg">
<path d="M5.59598 21.8867H0.412946V7.86609H5.59598V21.8867ZM3.00167 5.95355C1.34431 5.95355 0 4.8004 0 3.40818C1.18627e-08 2.73945 0.316247 2.0981 0.87917 1.62524C1.44209 1.15237 2.20558 0.886719 3.00167 0.886719C3.79777 0.886719 4.56125 1.15237 5.12418 1.62524C5.6871 2.0981 6.00335 2.73945 6.00335 3.40818C6.00335 4.8004 4.65848 5.95355 3.00167 5.95355ZM24.9944 21.8867H19.8225V15.0616C19.8225 13.435 19.7835 11.349 17.1278 11.349C14.433 11.349 14.0201 13.1162 14.0201 14.9444V21.8867H8.84263V7.86609H13.8136V9.77864H13.8862C14.5781 8.67705 16.2684 7.51452 18.7902 7.51452C24.0357 7.51452 25 10.4162 25 14.185V21.8867H24.9944Z" fill="white"/>
</svg>
