<svg xmlns="http://www.w3.org/2000/svg" width="1715" height="131" viewBox="0 0 1715 131" fill="none"><path d="M143.26 2.64V129H112.48V53.22L84.22 129H59.38L30.94 53.04V129H0.16V2.64H36.52L71.98 90.12L107.08 2.64H143.26ZM196.174 27.3V52.86H237.394V76.62H196.174V104.34H242.794V129H165.394V2.64H242.794V27.3H196.174ZM405.877 2.64V129H375.097V53.22L346.837 129H321.997L293.557 53.04V129H262.777V2.64H299.137L334.597 90.12L369.697 2.64H405.877ZM487.772 130.26C475.892 130.26 464.972 127.5 455.012 121.98C445.172 116.46 437.312 108.78 431.432 98.94C425.672 88.98 422.792 77.82 422.792 65.46C422.792 53.1 425.672 42 431.432 32.16C437.312 22.32 445.172 14.64 455.012 9.12C464.972 3.6 475.892 0.839998 487.772 0.839998C499.652 0.839998 510.512 3.6 520.352 9.12C530.312 14.64 538.112 22.32 543.752 32.16C549.512 42 552.392 53.1 552.392 65.46C552.392 77.82 549.512 88.98 543.752 98.94C537.992 108.78 530.192 116.46 520.352 121.98C510.512 127.5 499.652 130.26 487.772 130.26ZM487.772 102.18C497.852 102.18 505.892 98.82 511.892 92.1C518.012 85.38 521.072 76.5 521.072 65.46C521.072 54.3 518.012 45.42 511.892 38.82C505.892 32.1 497.852 28.74 487.772 28.74C477.572 28.74 469.412 32.04 463.292 38.64C457.292 45.24 454.292 54.18 454.292 65.46C454.292 76.62 457.292 85.56 463.292 92.28C469.412 98.88 477.572 102.18 487.772 102.18ZM633.955 129L607.675 81.3H600.295V129H569.515V2.64H621.175C631.135 2.64 639.595 4.38 646.555 7.85999C653.635 11.34 658.915 16.14 662.395 22.26C665.875 28.26 667.615 34.98 667.615 42.42C667.615 50.82 665.215 58.32 660.415 64.92C655.735 71.52 648.775 76.2 639.535 78.96L668.695 129H633.955ZM600.295 59.52H619.375C625.015 59.52 629.215 58.14 631.975 55.38C634.855 52.62 636.295 48.72 636.295 43.68C636.295 38.88 634.855 35.1 631.975 32.34C629.215 29.58 625.015 28.2 619.375 28.2H600.295V59.52ZM795.297 2.64L751.557 87.24V129H720.777V87.24L677.037 2.64H711.957L736.437 55.56L760.737 2.64H795.297ZM928.104 2.64V27.3H876.624V53.94H915.144V77.88H876.624V129H845.844V2.64H928.104ZM975.061 27.3V52.86H1016.28V76.62H975.061V104.34H1021.68V129H944.281V2.64H1021.68V27.3H975.061ZM1120.32 106.68H1073.16L1065.6 129H1033.38L1079.1 2.64H1114.74L1160.46 129H1127.88L1120.32 106.68ZM1112.4 82.92L1096.74 36.66L1081.26 82.92H1112.4ZM1265.28 2.64V27.3H1231.8V129H1201.02V27.3H1167.54V2.64H1265.28ZM1310.97 2.64V78.24C1310.97 85.8 1312.83 91.62 1316.55 95.7C1320.27 99.78 1325.73 101.82 1332.93 101.82C1340.13 101.82 1345.65 99.78 1349.49 95.7C1353.33 91.62 1355.25 85.8 1355.25 78.24V2.64H1386.03V78.06C1386.03 89.34 1383.63 98.88 1378.83 106.68C1374.03 114.48 1367.55 120.36 1359.39 124.32C1351.35 128.28 1342.35 130.26 1332.39 130.26C1322.43 130.26 1313.49 128.34 1305.57 124.5C1297.77 120.54 1291.59 114.66 1287.03 106.86C1282.47 98.94 1280.19 89.34 1280.19 78.06V2.64H1310.97ZM1472.08 129L1445.8 81.3H1438.42V129H1407.64V2.64H1459.3C1469.26 2.64 1477.72 4.38 1484.68 7.85999C1491.76 11.34 1497.04 16.14 1500.52 22.26C1504 28.26 1505.74 34.98 1505.74 42.42C1505.74 50.82 1503.34 58.32 1498.54 64.92C1493.86 71.52 1486.9 76.2 1477.66 78.96L1506.82 129H1472.08ZM1438.42 59.52H1457.5C1463.14 59.52 1467.34 58.14 1470.1 55.38C1472.98 52.62 1474.42 48.72 1474.42 43.68C1474.42 38.88 1472.98 35.1 1470.1 32.34C1467.34 29.58 1463.14 28.2 1457.5 28.2H1438.42V59.52ZM1555.84 27.3V52.86H1597.06V76.62H1555.84V104.34H1602.46V129H1525.06V2.64H1602.46V27.3H1555.84ZM1668.17 130.26C1658.93 130.26 1650.65 128.76 1643.33 125.76C1636.01 122.76 1630.13 118.32 1625.69 112.44C1621.37 106.56 1619.09 99.48 1618.85 91.2H1651.61C1652.09 95.88 1653.71 99.48 1656.47 102C1659.23 104.4 1662.83 105.6 1667.27 105.6C1671.83 105.6 1675.43 104.58 1678.07 102.54C1680.71 100.38 1682.03 97.44 1682.03 93.72C1682.03 90.6 1680.95 88.02 1678.79 85.98C1676.75 83.94 1674.17 82.26 1671.05 80.94C1668.05 79.62 1663.73 78.12 1658.09 76.44C1649.93 73.92 1643.27 71.4 1638.11 68.88C1632.95 66.36 1628.51 62.64 1624.79 57.72C1621.07 52.8 1619.21 46.38 1619.21 38.46C1619.21 26.7 1623.47 17.52 1631.99 10.92C1640.51 4.2 1651.61 0.839998 1665.29 0.839998C1679.21 0.839998 1690.43 4.2 1698.95 10.92C1707.47 17.52 1712.03 26.76 1712.63 38.64H1679.33C1679.09 34.56 1677.59 31.38 1674.83 29.1C1672.07 26.7 1668.53 25.5 1664.21 25.5C1660.49 25.5 1657.49 26.52 1655.21 28.56C1652.93 30.48 1651.79 33.3 1651.79 37.02C1651.79 41.1 1653.71 44.28 1657.55 46.56C1661.39 48.84 1667.39 51.3 1675.55 53.94C1683.71 56.7 1690.31 59.34 1695.35 61.86C1700.51 64.38 1704.95 68.04 1708.67 72.84C1712.39 77.64 1714.25 83.82 1714.25 91.38C1714.25 98.58 1712.39 105.12 1708.67 111C1705.07 116.88 1699.79 121.56 1692.83 125.04C1685.87 128.52 1677.65 130.26 1668.17 130.26Z" fill="#1B1B1B"></path></svg>