<svg xmlns="http://www.w3.org/2000/svg" width="194" height="70" viewBox="0 0 194 70" fill="none"><path d="M27.2086 3.52416C27.1392 3.52391 27.0712 3.50549 27.0112 3.47072C26.9513 3.43596 26.9015 3.38607 26.8668 3.32605C26.8276 3.26232 26.7836 3.20171 26.7351 3.14477C26.6901 3.11261 26.642 3.08507 26.5914 3.06256C26.5426 3.04252 26.4983 3.01293 26.4611 2.97553C26.4239 2.93813 26.3945 2.89367 26.3747 2.84476C26.3549 2.79585 26.345 2.74347 26.3457 2.69071C26.3464 2.63795 26.3577 2.58586 26.3788 2.5375C26.3999 2.48914 26.4305 2.44548 26.4687 2.40909C26.5069 2.3727 26.552 2.34431 26.6013 2.32559C26.6507 2.30686 26.7032 2.29818 26.756 2.30005C26.8087 2.30192 26.8605 2.31431 26.9084 2.33648C27.0712 2.40305 27.2183 2.50292 27.3403 2.62969C27.4201 2.72255 27.492 2.82195 27.5553 2.92685C27.59 2.98698 27.6083 3.05518 27.6083 3.12462C27.6084 3.19405 27.5902 3.26228 27.5556 3.32247C27.521 3.38266 27.4712 3.4327 27.4111 3.46758C27.3511 3.50245 27.2829 3.52094 27.2135 3.52118L27.2086 3.52416Z" fill="#C1272D"></path><path d="M29.3958 3.47887C29.3776 3.48033 29.3594 3.48033 29.3413 3.47887C29.2505 3.46449 29.1692 3.41469 29.1152 3.3404C29.0611 3.26611 29.0388 3.1734 29.053 3.08265C29.0794 2.9571 29.1441 2.84286 29.2383 2.75576C29.3216 2.66828 29.4117 2.58747 29.5077 2.51407C29.5438 2.48194 29.5861 2.45771 29.6321 2.44292C29.6781 2.42813 29.7267 2.42311 29.7747 2.42819C29.8227 2.43327 29.8692 2.44832 29.9111 2.4724C29.9529 2.49647 29.9893 2.52903 30.0179 2.56798C30.0464 2.60694 30.0665 2.65143 30.0769 2.69861C30.0873 2.74579 30.0876 2.79461 30.078 2.84195C30.0684 2.88929 30.049 2.93409 30.0211 2.97349C29.9932 3.0129 29.9573 3.04603 29.9158 3.07076C29.853 3.12074 29.7938 3.17503 29.7385 3.23321C29.7335 3.23814 29.7288 3.24343 29.7246 3.24906C29.7003 3.31665 29.6556 3.37503 29.5967 3.41618C29.5378 3.45733 29.4676 3.47923 29.3958 3.47887Z" fill="#C1272D"></path><path d="M72.411 14.1519H76.0572V31.4004H72.0197V21.5424L67.0927 28.5882H66.1071L61.1801 21.5424V31.4004H57.1406V14.1519H60.7859L66.6004 22.6706L72.411 14.1519Z" fill="white"></path><path d="M79.8047 14.1519H83.9927V31.4004H79.8047V14.1519Z" fill="white"></path><path d="M96.409 19.4972C95.7434 18.2412 94.6102 17.4527 93.1323 17.4527C91.8515 17.4527 91.063 17.8717 91.063 18.7582C91.063 19.621 91.6573 20.1629 94.7092 21.0742C97.9364 22.035 100.203 23.2177 100.203 26.4697C100.203 30.1645 96.7042 31.6919 93.6493 31.6919C90.3488 31.6919 87.6882 30.1397 86.6035 27.1839L89.9793 25.287C90.9887 27.2334 92.2942 28.0704 93.896 28.0704C95.3006 28.0704 96.0881 27.5752 96.0881 26.6421C96.0881 25.6565 95.3006 25.0156 92.7132 24.1786C90.1021 23.3405 86.9492 22.1826 86.9492 18.7305C86.9492 15.3072 90.0526 13.853 93.2798 13.853C96.7537 13.853 98.8973 15.5776 99.9314 17.7944L96.409 19.4972Z" fill="white"></path><path d="M114.244 14.1519H118.432V31.4004H114.244V24.1535H107.395V31.4004H103.207V14.1519H107.395V20.5815H114.244V14.1519Z" fill="white"></path><path d="M137.77 31.4004H134.74L126.29 21.5463V31.4004H122.176V14.1519H125.206L133.656 24.0059V14.1519H137.77V31.4004Z" fill="white"></path><path d="M149.772 14.1519L157.011 31.2023V31.4004H152.7L151.665 28.715H144.82L143.782 31.4004H139.471V31.2023L146.714 14.1548L149.772 14.1519ZM146.101 25.3847H150.388L148.245 19.8426L146.101 25.3847Z" fill="white"></path><path d="M75.9762 54.0745H83.121V57.6504H71.7871V40.4019H75.9762V54.0745Z" fill="white"></path><path d="M98.147 43.9738H89.9928V47.1505H96.6691V50.5748H89.9928V54.0745H98.147V57.6504H85.8047V40.4019H98.147V43.9738Z" fill="white"></path><path d="M112.51 52.8172L114.998 55.5521C113.619 57.129 111.525 57.9413 108.889 57.9413C103.912 57.9413 100.172 54.1475 100.172 49.0263C100.172 43.9051 103.916 40.1113 108.889 40.1113C111.525 40.1113 113.619 40.9246 114.998 42.5015L112.51 45.2355C111.845 44.4965 110.564 43.8804 109.134 43.8804C106.351 43.8804 104.232 46.0239 104.232 49.0313C104.232 52.0386 106.351 54.1821 109.134 54.1821C110.564 54.1722 111.845 53.5561 112.51 52.8172Z" fill="white"></path><path d="M128.203 40.4019H132.391V57.6504H128.203V50.4035H121.354V57.6504H117.166V40.4019H121.354V46.8315H128.203V40.4019Z" fill="white"></path><path d="M144.388 40.4019L151.631 57.4523V57.6504H147.319L146.285 54.965H139.436L138.401 57.6504H134.09V57.4523L141.333 40.4048L144.388 40.4019ZM140.717 51.6347H145.004L142.86 46.0926L140.717 51.6347Z" fill="white"></path><path d="M160.696 40.4019H165.402V40.5495L159.341 50.6531V57.6504H155.153V50.6502L149.143 40.5465V40.3989H153.848L157.247 46.582L160.696 40.4019Z" fill="white"></path><path d="M173.212 40.4019L180.455 57.4523V57.6504H176.143L175.109 54.965H168.26L167.225 57.6504H162.914V57.4523L170.157 40.4048L173.212 40.4019ZM169.541 51.6347H173.828L171.684 46.0926L169.541 51.6347Z" fill="white"></path><path d="M186.34 54.0745H193.485V57.6504H182.152V40.4019H186.34V54.0745Z" fill="white"></path><path d="M181.957 35.643C181.193 34.7 180.861 33.6689 180.751 32.5574C180.59 30.8708 180.82 29.1698 181.425 27.5869C182.363 25.0768 183.713 22.8144 185.762 21.0363C186.266 20.5985 186.858 20.2597 187.446 19.8477C187.271 20.6797 187.064 21.4098 186.973 22.1537C186.832 23.3077 186.992 24.4508 187.306 25.5671C187.682 26.9004 188.084 28.2267 188.463 29.559C188.824 30.826 188.905 32.1018 188.51 33.3786C188.168 34.4841 187.475 35.3033 186.396 35.9105C186.929 34.6089 186.739 33.5272 185.647 32.6991C184.879 32.1167 183.803 32.1048 182.973 32.6228C182.026 33.2201 181.72 34.0908 181.957 35.643Z" fill="#F28D1E"></path><path d="M184.007 35.6344C184.099 35.2085 184.309 34.8093 184.43 34.3883C184.471 34.2437 184.404 34.0674 184.386 33.9059L184.097 33.7573L183.942 34.1535C183.799 34.5201 183.617 34.8757 183.521 35.254C183.224 36.4269 183.422 37.5105 184.246 38.4238C184.357 38.5476 184.608 38.5457 184.793 38.6021C184.75 38.4298 184.759 38.2128 184.656 38.092C184.046 37.3758 183.81 36.5517 184.007 35.6344Z" fill="white"></path><path d="M182.941 32.6476C183.2 32.4854 183.487 32.3729 183.788 32.3158C184.189 32.1842 184.626 32.2152 185.005 32.402C185.223 32.4767 185.427 32.5857 185.61 32.7249C185.927 32.9548 186.19 33.25 186.383 33.5906C186.469 33.7468 186.536 33.9132 186.581 34.0859C186.863 33.7757 187.071 33.4065 187.191 33.0052C187.462 32.1325 187.406 31.2599 187.16 30.3931C186.9 29.4818 186.629 28.5735 186.367 27.6622C185.935 26.1516 185.569 24.4785 185.803 23.5098C184.189 24.4488 182.987 27.3254 182.346 29.042C181.933 30.1246 181.775 31.288 181.886 32.4416C181.918 32.8011 181.995 33.1551 182.115 33.4955C182.308 33.1435 182.594 32.8505 182.941 32.6476Z" fill="#F2C71E"></path><path d="M94.0211 1.08961C94.4253 2.69034 95.0305 8.76541 95.0305 8.76541L94.9949 1.99299C94.9949 1.37687 94.9206 0.760745 94.871 0C84.8664 2.89539 74.8559 3.56599 64.7305 3.03704C74.5746 4.04839 84.3395 3.64227 94.0211 1.08961Z" fill="white"></path><path d="M62.1086 62.9063C67.8736 63.9127 74.1775 65.0934 80.5141 66.0602C86.396 66.9566 87.4073 67.4925 93.4368 66.393C93.5181 66.3782 93.5517 66.3405 93.6082 66.2405C94.5453 64.5932 95.4269 60.4953 95.4318 60.7568C95.4708 62.7517 95.5097 64.747 95.5487 66.7427C95.5774 68.1998 95.1158 68.6445 93.7023 68.9506C83.6314 71.1298 79.1342 69.5301 69.1713 67.6431C63.6182 66.5911 58.2603 66.8388 53.0124 69.333C51.6256 69.9907 49.3978 70.0095 48.0259 69.3488C42.7819 66.8229 37.421 66.5891 31.872 67.6401C21.8466 69.537 11.8093 70.5395 1.68485 68.3028C0.455573 68.0324 -0.0238552 67.6688 0.000908618 66.3504C0.36213 48.0694 0.693966 29.7874 0.996415 11.5045C1.00434 11.0686 1.07071 10.6338 1.11924 10.1979C1.12426 10.1471 1.14675 10.0996 1.18287 10.0634C1.21899 10.0273 1.26652 10.0048 1.31735 9.99981C1.34765 9.9968 1.37823 10.0001 1.4072 10.0095C1.43616 10.0188 1.46287 10.0341 1.48566 10.0543C1.50845 10.0744 1.52682 10.0991 1.53962 10.1267C1.55242 10.1544 1.55937 10.1843 1.56004 10.2148C1.89683 28.6391 2.23362 47.0733 2.57239 65.6026C2.57339 65.6538 2.5921 65.7031 2.62532 65.7421C2.65854 65.7811 2.70424 65.8074 2.75465 65.8165C8.61557 66.8772 14.6118 66.9589 20.4994 66.0582C25.3155 65.3282 30.083 64.2802 34.8912 63.4828C36.3572 63.2401 37.8559 63.1935 39.5121 63.1014C39.5649 63.0991 39.615 63.078 39.6535 63.0418C39.6919 63.0056 39.716 62.9567 39.7214 62.9042C39.7268 62.8517 39.7132 62.799 39.6829 62.7557C39.6527 62.7124 39.6079 62.6815 39.5567 62.6685C36.3087 61.8384 33.1953 62.0851 30.0711 62.195C25.1511 62.3694 20.2052 62.6616 15.3119 62.3308C12.5057 62.1416 9.74994 60.8915 7.03186 59.9455C6.46328 59.7474 5.78475 58.7915 5.78574 58.1853C5.82536 39.1323 5.91748 20.0787 6.06211 1.0244C6.07945 0.77502 6.11755 0.527515 6.17602 0.284461C6.1815 0.254515 6.19317 0.226042 6.21028 0.200861C6.22739 0.17568 6.24957 0.154345 6.27539 0.138218C6.30121 0.122091 6.33011 0.111527 6.36025 0.107202C6.39038 0.102876 6.42109 0.104883 6.4504 0.113095C16.2668 2.84306 26.208 3.61569 36.272 3.01839C26.5646 4.05055 16.9295 3.63848 7.10417 1.12148C7.07163 1.11336 7.03768 1.11275 7.00488 1.1197C6.97207 1.12666 6.94129 1.14099 6.91484 1.1616C6.8884 1.18222 6.867 1.20859 6.85226 1.23871C6.83753 1.26883 6.82984 1.30191 6.82978 1.33544C6.82978 2.02883 6.82978 2.56075 6.82978 3.09763C6.92884 20.8692 7.04473 38.6407 7.08931 56.4122C7.08931 57.9376 7.54199 58.6043 9.01494 59.157C14.8949 61.363 20.8838 61.5561 27.0321 60.8023C30.2154 60.419 33.4226 60.2713 36.6276 60.3605C41.0346 60.4774 45.0097 62.2158 49.2195 64.4575C49.2528 64.4754 49.2902 64.4844 49.328 64.4836C49.3658 64.4828 49.4028 64.4723 49.4353 64.4531C49.4679 64.4339 49.4949 64.4066 49.5139 64.3739C49.5328 64.3412 49.543 64.3041 49.5434 64.2663C49.7802 45.0268 50.014 26.0844 50.2467 7.14305C50.2475 7.08499 50.2711 7.02956 50.3125 6.98878C50.3538 6.94799 50.4096 6.92513 50.4676 6.92513H50.5667C50.6244 6.92513 50.6798 6.94792 50.7208 6.98855C50.7618 7.02918 50.7851 7.08435 50.7856 7.14206C51.0174 26.0616 51.2492 44.9812 51.4849 64.2148C51.4849 64.2524 51.4945 64.2894 51.5127 64.3222C51.531 64.3551 51.5573 64.3828 51.5893 64.4026C51.6212 64.4224 51.6577 64.4338 51.6952 64.4356C51.7328 64.4374 51.7702 64.4296 51.8039 64.4129C52.9192 63.8622 52.4775 63.7938 54.6636 62.9994C56.8498 62.205 62.1086 62.9063 62.1086 62.9063Z" fill="white"></path><path d="M27.9518 29.9654C27.9322 29.9652 27.9127 29.9636 27.8933 29.9605C27.7814 29.9446 25.1406 29.4969 25.1059 23.9914C25.0821 20.3115 24.7097 17.3071 24.3729 14.6554C23.8489 10.4733 23.4348 7.17079 24.7453 3.64343C25.0296 2.87872 25.4328 2.41118 25.9439 2.25665C26.1349 2.20148 26.3357 2.18877 26.5321 2.2194C26.7286 2.25003 26.9159 2.32326 27.0811 2.43396C27.1646 2.49523 27.2209 2.58679 27.2377 2.68902C27.2546 2.79126 27.2307 2.89603 27.1713 2.98088C27.1118 3.06573 27.0215 3.12392 26.9196 3.14296C26.8178 3.16201 26.7125 3.1404 26.6264 3.08278C26.5593 3.04049 26.4841 3.01274 26.4056 3.00131C26.3271 2.98988 26.2471 2.99502 26.1708 3.01641C25.9132 3.09961 25.6755 3.41263 25.4883 3.92276C24.2451 7.26489 24.6483 10.4832 25.1604 14.5613C25.4952 17.2358 25.8756 20.2639 25.8993 23.9904C25.9291 28.751 27.9944 29.1779 28.0152 29.1819C28.1185 29.1978 28.2113 29.2539 28.2735 29.3379C28.3356 29.4219 28.3621 29.5272 28.347 29.6306C28.3323 29.7245 28.2842 29.8101 28.2117 29.8715C28.1391 29.933 28.0469 29.9663 27.9518 29.9654Z" fill="#C1272D"></path><path d="M35.0414 48.1863L35.1871 33.328C35.204 31.4388 34.4706 29.6202 33.148 28.2711C31.8253 26.9221 30.0215 26.153 28.1323 26.1326C26.2425 26.1152 24.423 26.8486 23.0735 28.1717C21.724 29.4948 20.9548 31.2995 20.935 33.1893L20.7894 48.0476C20.7722 49.9373 21.5057 51.7565 22.8288 53.1058C24.1519 54.4551 25.9564 55.2241 27.8461 55.244C29.7357 55.2609 31.5549 54.5271 32.904 53.2039C34.2531 51.8806 35.0218 50.076 35.0414 48.1863ZM24.5842 31.436C24.8853 30.7511 25.3827 30.1709 26.0136 29.7687C26.6445 29.3665 27.3805 29.1604 28.1285 29.1765C28.8766 29.1925 29.603 29.4301 30.216 29.859C30.8291 30.288 31.3011 30.8891 31.5725 31.5864C31.8439 32.2836 31.9024 33.0457 31.7407 33.7762C31.579 34.5067 31.2043 35.1728 30.664 35.6904C30.1237 36.2079 29.442 36.5536 28.7052 36.6838C27.9684 36.8139 27.2096 36.7226 26.5247 36.4215C25.6071 36.0167 24.8876 35.2645 24.5238 34.3299C24.1601 33.3953 24.1818 32.3546 24.5842 31.436Z" fill="#00CB82"></path><path d="M32.3857 48.6024L23.2598 48.5241L28.0481 40.7334L32.3857 48.6024ZM23.966 48.1338L31.7122 48.2002L28.0342 41.5199L23.966 48.1338Z" fill="white"></path><path d="M27.9021 50.9412L23.5645 43.0723L32.6894 43.1505L27.9021 50.9412ZM24.237 43.4744L27.9189 50.1537L31.9802 43.5408L24.237 43.4744Z" fill="white"></path><path d="M31.1048 11.0457C31.0404 11.0456 30.9769 11.0298 30.9199 10.9996C30.863 10.9694 30.8142 10.9257 30.778 10.8724C29.8132 9.45887 30.0103 8.29695 30.2015 7.17069C30.2956 6.61598 30.3926 6.04146 30.3639 5.40652C30.2827 3.60074 29.931 3.25008 29.8607 3.19758C29.7643 3.21637 29.6644 3.1987 29.5803 3.148C29.4962 3.0973 29.4339 3.01718 29.4056 2.92317C29.3772 2.82917 29.3847 2.72798 29.4267 2.63922C29.4687 2.55046 29.5422 2.48045 29.6329 2.44278C29.7399 2.40429 29.8545 2.39176 29.9673 2.40622C30.0801 2.42069 30.1879 2.46174 30.2817 2.52599C30.7988 2.85485 31.084 3.78498 31.1564 5.37086C31.1881 6.09099 31.084 6.70711 30.983 7.30343C30.7958 8.40492 30.6482 9.27562 31.4327 10.4266C31.4732 10.4862 31.4968 10.5557 31.5007 10.6277C31.5047 10.6996 31.489 10.7713 31.4553 10.835C31.4215 10.8986 31.3711 10.9519 31.3094 10.989C31.2476 11.0262 31.1769 11.0458 31.1048 11.0457Z" fill="#C1272D"></path><path d="M28.1989 29.986C28.115 29.9872 28.0311 29.9813 27.9483 29.9682C27.8476 29.9462 27.7596 29.8858 27.7027 29.8C27.6458 29.7141 27.6245 29.6095 27.6435 29.5083C27.6624 29.407 27.72 29.3172 27.8041 29.2577C27.8882 29.1982 27.9921 29.1738 28.0939 29.1896C28.1622 29.2005 29.5569 29.4006 30.2335 27.1768C30.7149 25.5919 30.4197 23.8505 30.1344 22.1666C29.7055 19.6436 29.2627 17.0355 31.7718 15.4229C31.8602 15.366 31.9676 15.3466 32.0703 15.3689C32.173 15.3912 32.2627 15.4534 32.3196 15.5418C32.3765 15.6302 32.3959 15.7375 32.3736 15.8403C32.3513 15.943 32.2891 16.0327 32.2007 16.0895C30.1324 17.4189 30.495 19.5565 30.913 22.0329C31.2102 23.8079 31.5252 25.6434 30.9893 27.4056C30.282 29.7413 28.7912 29.986 28.1989 29.986Z" fill="#C1272D"></path></svg>