<svg width="24" height="24" viewBox="0 0 24 24" fill="none" xmlns="http://www.w3.org/2000/svg">
<path d="M4.4326 0.942753C5.43097 0.690014 5.92139 1.32186 6.18412 2.24256C6.70958 3.66873 7.3051 5.0949 7.93564 6.48497C8.04693 6.69799 8.09467 6.94015 8.07285 7.18105C8.05104 7.42194 7.96065 7.65082 7.81304 7.83893C7.35764 8.47078 6.90225 9.13873 6.41182 9.75253C6.25225 9.91264 6.15385 10.1265 6.13456 10.3552C6.11526 10.5839 6.17637 10.8121 6.30673 10.9982C8.1435 14.2849 11.0091 16.8311 14.4338 18.2193C14.6345 18.3264 14.8663 18.3543 15.0856 18.2978C15.3048 18.2413 15.4966 18.1042 15.6248 17.9124C16.2028 17.1722 16.7983 16.4321 17.3763 15.6919C17.9543 14.9517 18.0419 15.0059 18.655 15.2767C20.3189 16.071 21.9653 16.8834 23.6118 17.7319C23.7241 17.8178 23.8157 17.9293 23.8795 18.0577C23.9433 18.186 23.9776 18.3278 23.9796 18.472C24.0839 19.6018 23.786 20.732 23.1415 21.6521C22.497 22.5722 21.5498 23.2193 20.4765 23.4727C18.9637 24.0247 17.3128 24.0247 15.8 23.4727C10.3652 21.7917 5.68158 18.1855 2.57599 13.2909C1.47161 11.8413 0.661506 10.1775 0.193918 8.39857C-0.0980203 7.17778 -0.059715 5.89788 0.304671 4.69796C0.669057 3.49805 1.34558 2.42403 2.26071 1.59265C2.55015 1.31994 2.89656 1.11948 3.27316 1.00679C3.64977 0.894097 4.04647 0.872187 4.4326 0.942753Z" fill="white"/>
</svg>
