<svg xmlns="http://www.w3.org/2000/svg" width="1287" height="131" viewBox="0 0 1287 131" fill="none"><path d="M64.6 129L38.32 81.3H30.94V129H0.16V2.64H51.82C61.78 2.64 70.24 4.38 77.2 7.85999C84.28 11.34 89.56 16.14 93.04 22.26C96.52 28.26 98.26 34.98 98.26 42.42C98.26 50.82 95.86 58.32 91.06 64.92C86.38 71.52 79.42 76.2 70.18 78.96L99.34 129H64.6ZM30.94 59.52H50.02C55.66 59.52 59.86 58.14 62.62 55.38C65.5 52.62 66.94 48.72 66.94 43.68C66.94 38.88 65.5 35.1 62.62 32.34C59.86 29.58 55.66 28.2 50.02 28.2H30.94V59.52ZM148.362 27.3V52.86H189.582V76.62H148.362V104.34H194.982V129H117.582V2.64H194.982V27.3H148.362ZM298.845 42.6C296.565 38.4 293.265 35.22 288.945 33.06C284.745 30.78 279.765 29.64 274.005 29.64C264.045 29.64 256.065 32.94 250.065 39.54C244.065 46.02 241.065 54.72 241.065 65.64C241.065 77.28 244.185 86.4 250.425 93C256.785 99.48 265.485 102.72 276.525 102.72C284.085 102.72 290.445 100.8 295.605 96.96C300.885 93.12 304.725 87.6 307.125 80.4H268.065V57.72H335.025V86.34C332.745 94.02 328.845 101.16 323.325 107.76C317.925 114.36 311.025 119.7 302.625 123.78C294.225 127.86 284.745 129.9 274.185 129.9C261.705 129.9 250.545 127.2 240.705 121.8C230.985 116.28 223.365 108.66 217.845 98.94C212.445 89.22 209.745 78.12 209.745 65.64C209.745 53.16 212.445 42.06 217.845 32.34C223.365 22.5 230.985 14.88 240.705 9.47999C250.425 3.95999 261.525 1.19999 274.005 1.19999C289.125 1.19999 301.845 4.85999 312.165 12.18C322.605 19.5 329.505 29.64 332.865 42.6H298.845ZM382.854 2.64V129H352.074V2.64H382.854ZM450.88 130.26C441.64 130.26 433.36 128.76 426.04 125.76C418.72 122.76 412.84 118.32 408.4 112.44C404.08 106.56 401.8 99.48 401.56 91.2H434.32C434.8 95.88 436.42 99.48 439.18 102C441.94 104.4 445.54 105.6 449.98 105.6C454.54 105.6 458.14 104.58 460.78 102.54C463.42 100.38 464.74 97.44 464.74 93.72C464.74 90.6 463.66 88.02 461.5 85.98C459.46 83.94 456.88 82.26 453.76 80.94C450.76 79.62 446.44 78.12 440.8 76.44C432.64 73.92 425.98 71.4 420.82 68.88C415.66 66.36 411.22 62.64 407.5 57.72C403.78 52.8 401.92 46.38 401.92 38.46C401.92 26.7 406.18 17.52 414.7 10.92C423.22 4.2 434.32 0.839998 448 0.839998C461.92 0.839998 473.14 4.2 481.66 10.92C490.18 17.52 494.74 26.76 495.34 38.64H462.04C461.8 34.56 460.3 31.38 457.54 29.1C454.78 26.7 451.24 25.5 446.92 25.5C443.2 25.5 440.2 26.52 437.92 28.56C435.64 30.48 434.5 33.3 434.5 37.02C434.5 41.1 436.42 44.28 440.26 46.56C444.1 48.84 450.1 51.3 458.26 53.94C466.42 56.7 473.02 59.34 478.06 61.86C483.22 64.38 487.66 68.04 491.38 72.84C495.1 77.64 496.96 83.82 496.96 91.38C496.96 98.58 495.1 105.12 491.38 111C487.78 116.88 482.5 121.56 475.54 125.04C468.58 128.52 460.36 130.26 450.88 130.26ZM606.802 2.64V27.3H573.322V129H542.542V27.3H509.062V2.64H606.802ZM686.69 129L660.41 81.3H653.03V129H622.25V2.64H673.91C683.87 2.64 692.33 4.38 699.29 7.85999C706.37 11.34 711.65 16.14 715.13 22.26C718.61 28.26 720.35 34.98 720.35 42.42C720.35 50.82 717.95 58.32 713.15 64.92C708.47 71.52 701.51 76.2 692.27 78.96L721.43 129H686.69ZM653.03 59.52H672.11C677.75 59.52 681.95 58.14 684.71 55.38C687.59 52.62 689.03 48.72 689.03 43.68C689.03 38.88 687.59 35.1 684.71 32.34C681.95 29.58 677.75 28.2 672.11 28.2H653.03V59.52ZM818.332 106.68H771.172L763.612 129H731.392L777.112 2.64H812.752L858.472 129H825.892L818.332 106.68ZM810.412 82.92L794.752 36.66L779.272 82.92H810.412ZM963.287 2.64V27.3H929.807V129H899.027V27.3H865.547V2.64H963.287ZM1009.51 2.64V129H978.734V2.64H1009.51ZM1091.58 130.26C1079.7 130.26 1068.78 127.5 1058.82 121.98C1048.98 116.46 1041.12 108.78 1035.24 98.94C1029.48 88.98 1026.6 77.82 1026.6 65.46C1026.6 53.1 1029.48 42 1035.24 32.16C1041.12 22.32 1048.98 14.64 1058.82 9.12C1068.78 3.6 1079.7 0.839998 1091.58 0.839998C1103.46 0.839998 1114.32 3.6 1124.16 9.12C1134.12 14.64 1141.92 22.32 1147.56 32.16C1153.32 42 1156.2 53.1 1156.2 65.46C1156.2 77.82 1153.32 88.98 1147.56 98.94C1141.8 108.78 1134 116.46 1124.16 121.98C1114.32 127.5 1103.46 130.26 1091.58 130.26ZM1091.58 102.18C1101.66 102.18 1109.7 98.82 1115.7 92.1C1121.82 85.38 1124.88 76.5 1124.88 65.46C1124.88 54.3 1121.82 45.42 1115.7 38.82C1109.7 32.1 1101.66 28.74 1091.58 28.74C1081.38 28.74 1073.22 32.04 1067.1 38.64C1061.1 45.24 1058.1 54.18 1058.1 65.46C1058.1 76.62 1061.1 85.56 1067.1 92.28C1073.22 98.88 1081.38 102.18 1091.58 102.18ZM1286.36 129H1255.58L1204.1 51.06V129H1173.32V2.64H1204.1L1255.58 80.94V2.64H1286.36V129Z" fill="#1B1B1B"></path></svg>